<?xml version="1.0" encoding="UTF-8"?>
<svg version="1.1" xmlns="http://www.w3.org/2000/svg" width="512" height="512">
<path d="M0 0 C1.59124615 1.34485965 3.17487163 2.69879826 4.75 4.0625 C5.49765625 4.66578125 6.2453125 5.2690625 7.015625 5.890625 C25.32772956 21.12936935 36.00216966 43.87640931 39.75 67.0625 C40.15364115 71.84339066 40.22810715 76.57884384 40.1875 81.375 C40.17614014 83.27403076 40.17614014 83.27403076 40.16455078 85.21142578 C39.99243881 95.02934575 38.89750516 103.7763823 35.75 113.0625 C35.53569336 113.7028418 35.32138672 114.34318359 35.10058594 115.00292969 C25.98100143 141.61831095 6.95308695 161.94594645 -18.01245117 174.30908203 C-22.92909497 176.62134464 -27.92261493 178.44091095 -33.125 180 C-33.78983398 180.19948242 -34.45466797 180.39896484 -35.13964844 180.60449219 C-40.62191258 182.1232824 -45.40107111 182.47760711 -51.25 183.0625 C-51.25 225.6325 -51.25 268.2025 -51.25 312.0625 C-47.29 312.0625 -43.33 312.0625 -39.25 312.0625 C-34.69358362 313.51226885 -32.8982398 314.0901403 -30.25 318.0625 C-30.03022098 320.52513319 -29.9220405 322.87174708 -29.9140625 325.3359375 C-29.9074057 326.05552643 -29.9007489 326.77511536 -29.89389038 327.51651001 C-29.88376218 329.04467216 -29.87907341 330.57287854 -29.87939453 332.10107422 C-29.87507995 334.39499508 -29.83893314 336.68689604 -29.80078125 338.98046875 C-29.71118652 350.4801246 -31.04170411 361.30497871 -37.75 371.0625 C-38.60078125 372.3309375 -38.60078125 372.3309375 -39.46875 373.625 C-48.36128485 385.7937319 -60.26254976 393.54190409 -75.25 396.0625 C-77.27292907 396.15354233 -79.29847339 396.19330365 -81.32344723 396.19672108 C-83.16466228 396.20340784 -83.16466228 396.20340784 -85.04307359 396.21022969 C-86.40216443 396.21014041 -87.76125526 396.20995057 -89.12034607 396.20967102 C-90.56661438 396.21297166 -92.01288177 396.21669765 -93.45914799 396.2208125 C-97.43417804 396.23081809 -101.40919298 396.23454698 -105.38423383 396.23720181 C-109.67144051 396.2411092 -113.95863528 396.25068732 -118.24583435 396.25941467 C-128.60059882 396.27916796 -138.95536425 396.28924437 -149.31014284 396.29814246 C-154.18920031 396.30252768 -159.0682567 396.30789393 -163.94731331 396.31313133 C-180.17173633 396.33014334 -196.39615868 396.34463643 -212.62058926 396.35188007 C-216.82998595 396.3537899 -221.03938263 396.35571024 -225.2487793 396.35766602 C-226.29497584 396.35814976 -227.34117239 396.3586335 -228.41907186 396.3591319 C-245.35809577 396.36742813 -262.29704897 396.39275831 -279.23604202 396.42524669 C-296.63620027 396.4583468 -314.03632263 396.47633155 -331.43651253 396.47952431 C-341.20226652 396.4816868 -350.96791742 396.49039701 -360.73364067 396.51598549 C-369.05256583 396.53773291 -377.37136286 396.5457231 -385.69031321 396.53601871 C-389.93106556 396.53148555 -394.17155377 396.53330252 -398.41226959 396.55278015 C-402.3031584 396.57049579 -406.19359205 396.56934685 -410.08448625 396.55388286 C-411.48364009 396.55151942 -412.88282615 396.5557639 -414.28193098 396.56771151 C-428.6780644 396.68291989 -440.61588076 393.69793924 -452.25 385.0625 C-453.23419922 384.35287109 -453.23419922 384.35287109 -454.23828125 383.62890625 C-463.52240171 376.36217782 -469.9843898 364.5656648 -472.25 353.0625 C-472.51837231 348.07043529 -472.56296316 343.08039175 -472.60009766 338.08178711 C-472.61668254 336.44557497 -472.64400627 334.80943602 -472.68212891 333.17358398 C-472.73698253 330.80414602 -472.75877723 328.43639406 -472.7734375 326.06640625 C-472.79610687 325.33917862 -472.81877625 324.61195099 -472.84213257 323.86268616 C-472.82600899 319.97362829 -472.37977769 318.22951764 -469.96728516 315.12475586 C-465.69081556 311.87917287 -462.29470657 311.94244884 -457 312 C-455.92234375 312.00902344 -454.8446875 312.01804687 -453.734375 312.02734375 C-452.91453125 312.03894531 -452.0946875 312.05054688 -451.25 312.0625 C-451.25368717 310.8708983 -451.25737434 309.67929661 -451.26117325 308.45158577 C-451.34787152 280.14265199 -451.41379549 251.83372167 -451.45426132 223.52468432 C-451.45926393 220.03761483 -451.46444124 216.55054563 -451.46972656 213.06347656 C-451.4707758 212.36928642 -451.47182505 211.67509629 -451.47290608 210.95987009 C-451.49029436 199.73099238 -451.5218233 188.50219689 -451.55861118 177.2733679 C-451.59606463 165.74493373 -451.61794588 154.21655731 -451.62635398 142.6880635 C-451.63156558 136.21544387 -451.64380232 129.74301049 -451.67292023 123.27045059 C-451.70011767 117.17526889 -451.70843609 111.08034976 -451.70243073 104.98511314 C-451.70352901 102.75106949 -451.71145681 100.51701683 -451.7268219 98.28302574 C-451.74681714 95.22523983 -451.74190405 92.16843638 -451.73101807 89.11062622 C-451.74266943 88.23316368 -451.7543208 87.35570114 -451.76632524 86.45164883 C-451.67388709 76.8001796 -447.9610506 68.028211 -441.25 61.0625 C-432.17712674 53.24777909 -421.61835741 51.60663736 -409.98066711 51.66377258 C-408.90137772 51.65712576 -407.82208833 51.65047893 -406.7100932 51.64363068 C-403.12344382 51.62510104 -399.53713098 51.62759925 -395.95043945 51.63012695 C-393.36756422 51.6211037 -390.78469326 51.6107751 -388.201828 51.59924316 C-382.65642489 51.57653242 -377.11108427 51.56458512 -371.56563759 51.56011391 C-363.54803929 51.55363362 -355.53055361 51.53066339 -347.51300087 51.50377061 C-334.50257962 51.46057379 -321.49216313 51.43056655 -308.48168945 51.40893555 C-295.84917868 51.38790451 -283.21670683 51.36061092 -270.58422852 51.32495117 C-269.41467419 51.32165293 -269.41467419 51.32165293 -268.22149251 51.31828807 C-264.30964252 51.30721788 -260.3977929 51.29602517 -256.48594344 51.28477156 C-224.07399475 51.19168714 -191.66203196 51.12004261 -159.25 51.0625 C-158.84161896 50.02944733 -158.43323792 48.99639465 -158.01248169 47.93203735 C-157.46951799 46.564842 -156.92645231 45.19768715 -156.38330078 43.83056641 C-155.98084892 42.81132835 -155.98084892 42.81132835 -155.57026672 41.77149963 C-150.27129546 28.45656382 -142.38068677 18.05582153 -132.25 8.0625 C-131.43789063 7.24007812 -130.62578125 6.41765625 -129.7890625 5.5703125 C-95.68376877 -27.17530174 -36.92082327 -29.02544721 0 0 Z " fill="#FEFDFD" transform="translate(472.25,67.9375)"/>
<path d="M0 0 C1.59124615 1.34485965 3.17487163 2.69879826 4.75 4.0625 C5.49765625 4.66578125 6.2453125 5.2690625 7.015625 5.890625 C25.32772956 21.12936935 36.00216966 43.87640931 39.75 67.0625 C40.15364115 71.84339066 40.22810715 76.57884384 40.1875 81.375 C40.17614014 83.27403076 40.17614014 83.27403076 40.16455078 85.21142578 C39.99243881 95.02934575 38.89750516 103.7763823 35.75 113.0625 C35.53569336 113.7028418 35.32138672 114.34318359 35.10058594 115.00292969 C25.98100143 141.61831095 6.95308695 161.94594645 -18.01245117 174.30908203 C-22.92909497 176.62134464 -27.92261493 178.44091095 -33.125 180 C-33.78983398 180.19948242 -34.45466797 180.39896484 -35.13964844 180.60449219 C-40.62191258 182.1232824 -45.40107111 182.47760711 -51.25 183.0625 C-51.25 225.6325 -51.25 268.2025 -51.25 312.0625 C-47.29 312.0625 -43.33 312.0625 -39.25 312.0625 C-34.69358362 313.51226885 -32.8982398 314.0901403 -30.25 318.0625 C-30.03022098 320.52513319 -29.9220405 322.87174708 -29.9140625 325.3359375 C-29.9074057 326.05552643 -29.9007489 326.77511536 -29.89389038 327.51651001 C-29.88376218 329.04467216 -29.87907341 330.57287854 -29.87939453 332.10107422 C-29.87507995 334.39499508 -29.83893314 336.68689604 -29.80078125 338.98046875 C-29.71118652 350.4801246 -31.04170411 361.30497871 -37.75 371.0625 C-38.60078125 372.3309375 -38.60078125 372.3309375 -39.46875 373.625 C-48.36128485 385.7937319 -60.26254976 393.54190409 -75.25 396.0625 C-77.27292907 396.15354233 -79.29847339 396.19330365 -81.32344723 396.19672108 C-83.16466228 396.20340784 -83.16466228 396.20340784 -85.04307359 396.21022969 C-86.40216443 396.21014041 -87.76125526 396.20995057 -89.12034607 396.20967102 C-90.56661438 396.21297166 -92.01288177 396.21669765 -93.45914799 396.2208125 C-97.43417804 396.23081809 -101.40919298 396.23454698 -105.38423383 396.23720181 C-109.67144051 396.2411092 -113.95863528 396.25068732 -118.24583435 396.25941467 C-128.60059882 396.27916796 -138.95536425 396.28924437 -149.31014284 396.29814246 C-154.18920031 396.30252768 -159.0682567 396.30789393 -163.94731331 396.31313133 C-180.17173633 396.33014334 -196.39615868 396.34463643 -212.62058926 396.35188007 C-216.82998595 396.3537899 -221.03938263 396.35571024 -225.2487793 396.35766602 C-226.29497584 396.35814976 -227.34117239 396.3586335 -228.41907186 396.3591319 C-245.35809577 396.36742813 -262.29704897 396.39275831 -279.23604202 396.42524669 C-296.63620027 396.4583468 -314.03632263 396.47633155 -331.43651253 396.47952431 C-341.20226652 396.4816868 -350.96791742 396.49039701 -360.73364067 396.51598549 C-369.05256583 396.53773291 -377.37136286 396.5457231 -385.69031321 396.53601871 C-389.93106556 396.53148555 -394.17155377 396.53330252 -398.41226959 396.55278015 C-402.3031584 396.57049579 -406.19359205 396.56934685 -410.08448625 396.55388286 C-411.48364009 396.55151942 -412.88282615 396.5557639 -414.28193098 396.56771151 C-428.6780644 396.68291989 -440.61588076 393.69793924 -452.25 385.0625 C-453.23419922 384.35287109 -453.23419922 384.35287109 -454.23828125 383.62890625 C-463.52240171 376.36217782 -469.9843898 364.5656648 -472.25 353.0625 C-472.51837231 348.07043529 -472.56296316 343.08039175 -472.60009766 338.08178711 C-472.61668254 336.44557497 -472.64400627 334.80943602 -472.68212891 333.17358398 C-472.73698253 330.80414602 -472.75877723 328.43639406 -472.7734375 326.06640625 C-472.79610687 325.33917862 -472.81877625 324.61195099 -472.84213257 323.86268616 C-472.82600899 319.97362829 -472.37977769 318.22951764 -469.96728516 315.12475586 C-465.69081556 311.87917287 -462.29470657 311.94244884 -457 312 C-455.92234375 312.00902344 -454.8446875 312.01804687 -453.734375 312.02734375 C-452.91453125 312.03894531 -452.0946875 312.05054688 -451.25 312.0625 C-451.25368717 310.8708983 -451.25737434 309.67929661 -451.26117325 308.45158577 C-451.34787152 280.14265199 -451.41379549 251.83372167 -451.45426132 223.52468432 C-451.45926393 220.03761483 -451.46444124 216.55054563 -451.46972656 213.06347656 C-451.4707758 212.36928642 -451.47182505 211.67509629 -451.47290608 210.95987009 C-451.49029436 199.73099238 -451.5218233 188.50219689 -451.55861118 177.2733679 C-451.59606463 165.74493373 -451.61794588 154.21655731 -451.62635398 142.6880635 C-451.63156558 136.21544387 -451.64380232 129.74301049 -451.67292023 123.27045059 C-451.70011767 117.17526889 -451.70843609 111.08034976 -451.70243073 104.98511314 C-451.70352901 102.75106949 -451.71145681 100.51701683 -451.7268219 98.28302574 C-451.74681714 95.22523983 -451.74190405 92.16843638 -451.73101807 89.11062622 C-451.74266943 88.23316368 -451.7543208 87.35570114 -451.76632524 86.45164883 C-451.67388709 76.8001796 -447.9610506 68.028211 -441.25 61.0625 C-432.17712674 53.24777909 -421.61835741 51.60663736 -409.98066711 51.66377258 C-408.90137772 51.65712576 -407.82208833 51.65047893 -406.7100932 51.64363068 C-403.12344382 51.62510104 -399.53713098 51.62759925 -395.95043945 51.63012695 C-393.36756422 51.6211037 -390.78469326 51.6107751 -388.201828 51.59924316 C-382.65642489 51.57653242 -377.11108427 51.56458512 -371.56563759 51.56011391 C-363.54803929 51.55363362 -355.53055361 51.53066339 -347.51300087 51.50377061 C-334.50257962 51.46057379 -321.49216313 51.43056655 -308.48168945 51.40893555 C-295.84917868 51.38790451 -283.21670683 51.36061092 -270.58422852 51.32495117 C-269.41467419 51.32165293 -269.41467419 51.32165293 -268.22149251 51.31828807 C-264.30964252 51.30721788 -260.3977929 51.29602517 -256.48594344 51.28477156 C-224.07399475 51.19168714 -191.66203196 51.12004261 -159.25 51.0625 C-158.84161896 50.02944733 -158.43323792 48.99639465 -158.01248169 47.93203735 C-157.46951799 46.564842 -156.92645231 45.19768715 -156.38330078 43.83056641 C-155.98084892 42.81132835 -155.98084892 42.81132835 -155.57026672 41.77149963 C-150.27129546 28.45656382 -142.38068677 18.05582153 -132.25 8.0625 C-131.43789063 7.24007812 -130.62578125 6.41765625 -129.7890625 5.5703125 C-95.68376877 -27.17530174 -36.92082327 -29.02544721 0 0 Z M-429.25 79.0625 C-430.93283469 81.86133045 -431.49963791 83.89490057 -431.49609566 87.14668655 C-431.50007775 87.95583173 -431.50405985 88.76497691 -431.50816262 89.59864163 C-431.50233693 90.48190838 -431.49651125 91.36517512 -431.49050903 92.27520752 C-431.49221788 93.21784226 -431.49392673 94.160477 -431.49568737 95.13167644 C-431.49898788 98.29782198 -431.48796923 101.46375671 -431.47705078 104.62988281 C-431.47648679 106.89645381 -431.47680299 109.16302517 -431.47793579 111.42959595 C-431.47851077 117.59035149 -431.46673291 123.75102951 -431.45278788 129.91176701 C-431.44030475 136.34732231 -431.43911193 142.78287929 -431.43673706 149.21844482 C-431.43122255 160.02259832 -431.41872109 170.82671995 -431.40087891 181.63085938 C-431.38252058 192.75911313 -431.36836384 203.88735916 -431.35986328 215.015625 C-431.35933783 215.70158309 -431.35881239 216.38754118 -431.35827102 217.09428588 C-431.35566094 220.53553968 -431.35313353 223.97679353 -431.35064721 227.41804743 C-431.32991414 255.96621754 -431.29453942 284.51435766 -431.25 313.0625 C-430.17324697 313.06746522 -430.17324697 313.06746522 -429.07474136 313.07253075 C-411.61510587 313.15372089 -394.15556193 313.24580021 -376.69604874 313.35002708 C-368.25278793 313.40016714 -359.80953691 313.44660989 -351.36621094 313.484375 C-344.00774355 313.51729713 -336.64935172 313.55712955 -329.2909677 313.60529006 C-325.39409822 313.63055288 -321.49727885 313.65233478 -317.60034943 313.66584396 C-313.93302172 313.67866632 -310.26586589 313.70072252 -306.59863281 313.72988319 C-304.60987658 313.74328696 -302.62106182 313.74688014 -300.63226318 313.75019836 C-298.85704285 313.76694359 -298.85704285 313.76694359 -297.04595947 313.7840271 C-296.0172385 313.78955786 -294.98851753 313.79508862 -293.9286232 313.80078697 C-291.1327953 314.0739514 -289.54607352 314.45698266 -287.25 316.0625 C-285.25 320.0625 -285.25 320.0625 -284.25 336.0625 C-262.47 336.0625 -240.69 336.0625 -218.25 336.0625 C-217.92 330.4525 -217.59 324.8425 -217.25 319.0625 C-211.625 313.4375 -211.625 313.4375 -206.29582214 313.42326355 C-205.1025531 313.40797607 -203.90928406 313.3926886 -202.67985535 313.37693787 C-201.37937759 313.38556351 -200.07889984 313.39418915 -198.73901367 313.40307617 C-197.34911665 313.39461984 -195.95923148 313.38397429 -194.56936646 313.37130737 C-190.80308828 313.34317318 -187.03737986 313.34563023 -183.27102828 313.35360122 C-179.33248104 313.35672709 -175.39411501 313.33168963 -171.4556427 313.30964661 C-164.00071555 313.27219811 -156.54597082 313.26005815 -149.09095889 313.2570222 C-139.01484015 313.2514551 -128.93889971 313.20676988 -118.86288166 313.16428089 C-102.9918768 313.09838621 -87.12126509 313.08473716 -71.25 313.0625 C-71.25 269.8325 -71.25 226.6025 -71.25 182.0625 C-76.86 181.0725 -82.47 180.0825 -88.25 179.0625 C-102.91051007 174.56146621 -115.68087218 168.1674423 -127.25 158.0625 C-127.92160156 157.53398437 -128.59320313 157.00546875 -129.28515625 156.4609375 C-146.23065361 142.78325971 -158.20755179 119.31541261 -161.25 98.0625 C-161.6807694 93.74988841 -162.00971879 89.43128512 -162.33203125 85.109375 C-162.42150024 83.94970215 -162.51096924 82.7900293 -162.60314941 81.59521484 C-162.82208773 78.75121339 -163.03760853 75.9069966 -163.25 73.0625 C-196.12586789 72.92516076 -229.00166137 72.81943906 -261.8777507 72.75610802 C-265.75923987 72.7486038 -269.64072847 72.74083787 -273.5222168 72.73291016 C-274.29494985 72.73133629 -275.0676829 72.72976243 -275.86383211 72.72814088 C-288.37515297 72.70203437 -300.88630838 72.65472775 -313.3975311 72.59958322 C-326.23562546 72.54346999 -339.07363318 72.51014647 -351.91184515 72.49796903 C-359.83353527 72.48973705 -367.75475775 72.46373984 -375.67630392 72.4150012 C-381.7510556 72.37952965 -387.82540518 72.37576986 -393.90027237 72.38385391 C-396.39198753 72.38220168 -398.88372022 72.37024582 -401.37532997 72.34726715 C-404.77606534 72.3174395 -408.17479559 72.32458147 -411.57557678 72.3409729 C-413.05662536 72.31475733 -413.05662536 72.31475733 -414.56759411 72.28801215 C-421.13221848 72.3736139 -425.06433375 73.86558488 -429.25 79.0625 Z " fill="#062A75" transform="translate(472.25,67.9375)"/>
<path d="M0 0 C7.69652431 6.86601796 13.99211536 13.89965048 19 23 C19.45890625 23.80953125 19.9178125 24.6190625 20.390625 25.453125 C29.72353349 42.88205049 32.32714162 64.46119149 26.9375 83.5625 C19.8600474 106.63372025 5.38184546 124.63778678 -16 136 C-20.25973745 137.94312668 -24.55299178 139.54160227 -29 141 C-29.88300781 141.3196875 -30.76601563 141.639375 -31.67578125 141.96875 C-52.08241433 148.34766859 -73.60085761 143.47965923 -92.1171875 134.1328125 C-97.31523586 131.36970535 -101.70335361 128.01416791 -106 124 C-106.82757813 123.26265625 -107.65515625 122.5253125 -108.5078125 121.765625 C-123.3031043 107.92048955 -132.54855648 88.71696146 -133.46875 68.38671875 C-133.50276262 66.15388058 -133.5127364 63.92056089 -133.5 61.6875 C-133.49427979 60.50905518 -133.48855957 59.33061035 -133.48266602 58.11645508 C-133.28695722 48.52408843 -131.87509791 40.79009552 -128 32 C-127.74299316 31.39414063 -127.48598633 30.78828125 -127.22119141 30.1640625 C-123.42190933 21.3200615 -118.46615578 14.09079337 -112 7 C-111.41347656 6.34386719 -110.82695312 5.68773438 -110.22265625 5.01171875 C-81.74441774 -25.20871788 -31.02855717 -27.04452792 0 0 Z " fill="#FB7CA0" transform="translate(463,87)"/>
<path d="M0 0 C48.84 0 97.68 0 148 0 C148.33 5.28 148.66 10.56 149 16 C151.32251426 20.88495525 151.32251426 20.88495525 154 22 C156.90799342 22.10384929 159.7922283 22.14680322 162.70068359 22.14526367 C163.60163254 22.14862228 164.50258148 22.1519809 165.43083191 22.15544128 C168.42004766 22.16496861 171.4092075 22.16689534 174.3984375 22.16796875 C176.47107975 22.17118026 178.54372176 22.17454425 180.61636353 22.17805481 C184.96592738 22.18405066 189.31547136 22.18589426 193.66503906 22.18530273 C199.24275054 22.18520112 204.82033468 22.19885021 210.39801598 22.21607494 C214.6804971 22.22718567 218.96294737 22.22922222 223.24544144 22.22869301 C225.30196191 22.22987465 227.35848314 22.23430668 229.41498947 22.24202538 C232.2902598 22.25180583 235.1652527 22.2489548 238.04052734 22.24291992 C239.31867058 22.25134918 239.31867058 22.25134918 240.62263489 22.25994873 C241.40775955 22.25575424 242.19288422 22.25155975 243.00180054 22.24723816 C243.68132971 22.24778293 244.36085888 22.24832769 245.06097984 22.24888897 C247.46437746 21.94039339 248.97333783 21.33432576 251 20 C254.14840253 14.35411136 254.14840253 14.35411136 254 0 C302.84 0 351.68 0 402 0 C402 15.33030662 401.71422847 23.18735372 391.4375 33.8359375 C384.75553716 39.76832118 376.87270365 43.24513175 367.88882923 43.25726891 C366.67841176 43.2637178 365.46799429 43.27016669 364.2208975 43.276811 C362.88626299 43.27386903 361.55162889 43.27073362 360.21699524 43.26742554 C358.79247315 43.27116347 357.36795312 43.27576557 355.94343632 43.28115618 C352.03326106 43.29338417 348.12317137 43.29312595 344.21298134 43.29076743 C339.99400969 43.29035921 335.77506544 43.30139903 331.55610657 43.31088257 C323.29144262 43.32749302 315.02680721 43.33299216 306.76212797 43.33410732 C300.0427765 43.33505789 293.32343442 43.3391686 286.60408592 43.34550858 C267.5484675 43.36312202 248.49287161 43.37234742 229.43724499 43.37084763 C227.89641785 43.37072776 227.89641785 43.37072776 226.32446289 43.37060547 C225.2959886 43.37052371 224.26751432 43.37044195 223.20787414 43.37035771 C206.54494274 43.36954504 189.88210178 43.38867763 173.21919654 43.4168822 C156.10490921 43.44562189 138.99066598 43.45942186 121.87635392 43.45769465 C112.27000655 43.45703107 102.66375397 43.46250932 93.05742836 43.48405075 C84.87713957 43.50227693 76.69698852 43.50659817 68.51668821 43.4930319 C64.34516343 43.48650917 60.17390279 43.48635973 56.00240326 43.5037384 C52.17831515 43.51950543 48.35469981 43.5165689 44.53062298 43.49917014 C42.50300762 43.49466535 40.47537739 43.50972912 38.44781953 43.52564943 C26.45515772 43.43549205 17.83804943 40.76580976 9.1640625 32.3671875 C0.08804901 22.43927382 0 13.9948333 0 0 Z " fill="#BA98F2" transform="translate(20,401)"/>
<path d="M0 0 C11.51450283 8.45055787 19.9855371 21.37186276 22.6796875 35.50390625 C24.43818686 49.20733418 21.70757845 63.37515815 14 75 C7.76107127 82.96001252 1.11890057 89.38267235 -8 94 C-8.84175781 94.43183594 -9.68351562 94.86367187 -10.55078125 95.30859375 C-21.60848894 99.93330796 -37.94777635 100.23900604 -49.3125 96.375 C-51.7265625 95.26171875 -51.7265625 95.26171875 -54 94 C-54.85335938 93.55269531 -55.70671875 93.10539062 -56.5859375 92.64453125 C-70.35070462 84.93543495 -79.04006931 74.00276555 -84 59 C-87.15062114 44.53945683 -85.76597952 30.12981018 -78.42578125 17.234375 C-71.82764925 7.20644478 -63.89559266 0.01349648 -53 -5 C-52.17113281 -5.41378906 -51.34226562 -5.82757813 -50.48828125 -6.25390625 C-34.35318412 -13.34544205 -14.43759942 -8.92825837 0 0 Z " fill="#FEFDFD" transform="translate(442,105)"/>
<path d="M0 0 C12.54 0 25.08 0 38 0 C38.2475 3.815625 38.495 7.63125 38.75 11.5625 C39.49869605 21.49490182 40.71383702 30.55363712 44 40 C44.42152344 41.23621094 44.84304688 42.47242188 45.27734375 43.74609375 C54.69463483 69.89371262 74.21526877 89.34471818 99.06347656 101.11767578 C109.14220019 105.709772 118.89060349 107.03951826 130 109 C130 152.23 130 195.46 130 240 C129.67 240 129.34 240 129 240 C129 209.64 129 179.28 129 148 C124.38 147.67 119.76 147.34 115 147 C111.75790164 146.3637477 108.71832118 145.70725257 105.5625 144.8125 C104.76102539 144.59182861 103.95955078 144.37115723 103.13378906 144.14379883 C73.84751687 135.82158739 44.77222383 117.83184366 27.2109375 92.41015625 C25.49246128 88.98983423 26.18611225 86.66249486 27 83 C27.495 81.515 27.495 81.515 28 80 C29.26306 67.5948322 28.5094632 56.6026254 21.015625 46.26171875 C15.54857019 39.71870103 9.14590904 34.71530301 1 32 C-0.21595397 21.31697584 -0.07259195 10.7436087 0 0 Z " fill="#D0DAFB" transform="translate(271,141)"/>
<path d="M0 0 C10.07901725 5.54000777 18.32660591 13.80661121 22.43359375 24.6796875 C25.01264698 35.55449719 24.85783182 48.36367438 19.28125 58.25390625 C12.43070962 68.88580927 3.48178501 75.85280812 -8.71875 79.25390625 C-21.86485816 80.84412193 -32.74269287 78.78727841 -43.59375 70.94140625 C-51.78401532 64.03733783 -57.55937449 54.99143788 -58.99365234 44.18212891 C-60.01143126 31.57820565 -57.86718881 21.1206153 -49.5625 11.25 C-36.98359387 -2.3682649 -17.45684316 -7.73165739 0 0 Z " fill="#FC6152" transform="translate(276.71875,173.74609375)"/>
<path d="M0 0 C0.65254257 -0.0071553 1.30508514 -0.01431061 1.97740173 -0.02168274 C3.3565841 -0.02944094 4.73588982 -0.02448687 6.11499023 -0.00756836 C8.18656018 0.01145897 10.25121468 -0.02751688 12.32226562 -0.07226562 C22.32424302 -0.13587788 30.79336114 1.8657993 38.38037109 8.70874023 C42.2771886 12.8111903 45.05137535 17.46173354 47.15234375 22.69921875 C47.508125 23.54097656 47.86390625 24.38273437 48.23046875 25.25 C51.24919112 36.5446265 50.8381197 51.34008979 45.81640625 61.97265625 C40.15963036 71.24127026 33.45196928 77.04984795 23.15234375 80.69921875 C17.97499883 81.50174647 12.94508088 81.54201744 7.71484375 81.44921875 C6.36650315 81.47065449 5.01819271 81.49408294 3.66992188 81.51953125 C2.38666016 81.51179688 1.10339844 81.5040625 -0.21875 81.49609375 C-1.3730249 81.48932617 -2.5272998 81.48255859 -3.71655273 81.47558594 C-7.01466094 80.6578094 -8.89954484 79.74882243 -10.923172 76.96224976 C-13.17543952 71.44895819 -12.55730468 65.06913189 -12.51171875 59.1953125 C-12.51509013 57.66886509 -12.51994543 56.14242031 -12.5262146 54.61598206 C-12.53356869 51.42414676 -12.52292741 48.2330132 -12.49951172 45.04125977 C-12.47099912 40.95642333 -12.48745076 36.87322773 -12.51737404 32.78845119 C-12.53546682 29.63901974 -12.52968065 26.4899756 -12.51673508 23.3405323 C-12.51340772 21.83468492 -12.5174646 20.32880199 -12.52913284 18.82299614 C-12.5418788 16.71625874 -12.52242138 14.61215691 -12.49462891 12.50561523 C-12.49065094 11.30903793 -12.48667297 10.11246063 -12.48257446 8.87962341 C-11.09392142 1.92364307 -6.56377729 0.06587208 0 0 Z " fill="#FD6252" transform="translate(104.84765625,272.30078125)"/>
<path d="M0 0 C2.70567626 1.82339052 4.53728718 3.07457436 6 6 C6.1071768 8.12794395 6.14889226 10.25928644 6.16113281 12.38989258 C6.16858017 13.37314766 6.16858017 13.37314766 6.17617798 14.37626648 C6.19080544 16.54903202 6.19760315 18.72172452 6.203125 20.89453125 C6.20887676 22.40427147 6.21463449 23.91401166 6.22039795 25.42375183 C6.23091013 28.59215638 6.23675111 31.76053554 6.24023438 34.92895508 C6.24571421 38.98434083 6.26973009 43.03938999 6.29820633 47.0946703 C6.31685386 50.2148282 6.32203946 53.33490545 6.32357025 56.45511436 C6.32659345 57.94981409 6.33461078 59.4445125 6.34775543 60.93915749 C6.36485798 63.03367111 6.3629258 65.12736823 6.35644531 67.22192383 C6.36191376 69.00823967 6.36191376 69.00823967 6.36749268 70.8306427 C5.95924864 74.35145087 5.12587547 76.18966088 3 79 C-0.04732585 81.03155057 -0.89419805 81.31560065 -4.375 81.375 C-5.12523437 81.40335937 -5.87546875 81.43171875 -6.6484375 81.4609375 C-10.79187036 80.6487696 -13.21245661 78.03207742 -15.7109375 74.7578125 C-16.26007813 73.88898438 -16.80921875 73.02015625 -17.375 72.125 C-21.48386043 65.76340528 -25.72475025 59.50106238 -30 53.25 C-31.33338192 51.29690817 -32.66671887 49.34378564 -34 47.390625 C-34.99991336 45.92702414 -35.99987869 44.46345877 -37 43 C-37.0093457 43.97348389 -37.01869141 44.94696777 -37.02832031 45.94995117 C-37.06831092 49.5752472 -37.13409325 53.19970263 -37.20751953 56.82446289 C-37.23567694 58.39075897 -37.25691753 59.95719575 -37.27099609 61.52368164 C-37.29249967 63.78084066 -37.33918189 66.03631739 -37.390625 68.29296875 C-37.39246796 69.33701118 -37.39246796 69.33701118 -37.39434814 70.40214539 C-37.53702366 75.17984405 -38.62531159 77.63518141 -42 81 C-45.21694364 82.60847182 -48.52137222 82.61309149 -52 82 C-54.69105198 79.82425584 -56.45532928 78.08934144 -58 75 C-58.11229705 72.87747507 -58.15935241 70.75139681 -58.17700195 68.62597656 C-58.18685875 67.64513092 -58.18685875 67.64513092 -58.19691467 66.64447021 C-58.21665331 64.47652066 -58.22831281 62.30864047 -58.23828125 60.140625 C-58.24235678 59.39973381 -58.2464323 58.65884262 -58.25063133 57.89550018 C-58.27149675 53.97232847 -58.28579511 50.04919177 -58.29516602 46.12597656 C-58.30621793 42.07955587 -58.34060169 38.03368701 -58.38033772 33.98746109 C-58.40652619 30.87155152 -58.4148599 27.75577282 -58.41844749 24.63976288 C-58.42330952 23.14866163 -58.43491271 21.65756607 -58.45348549 20.16657257 C-58.47792127 18.07447588 -58.47690474 15.98379825 -58.4699707 13.89160156 C-58.47583694 12.70294495 -58.48170319 11.51428833 -58.48774719 10.28961182 C-57.89697142 6.30512357 -56.490532 4.12771315 -54 1 C-50.41242578 -0.79378711 -46.89232328 -0.83268608 -43 0 C-39.95917567 2.11037254 -38.09451449 4.98305286 -36 8 C-35.60055176 8.56348145 -35.20110352 9.12696289 -34.78955078 9.70751953 C-31.45030935 14.42108724 -28.21314718 19.19988487 -25 24 C-24.5143457 24.72429199 -24.02869141 25.44858398 -23.52832031 26.19482422 C-20.6738414 30.4555116 -17.83414347 34.72576566 -15 39 C-15.00636475 38.00145996 -15.01272949 37.00291992 -15.01928711 35.97412109 C-15.03377709 32.24988309 -15.00228358 28.52717761 -14.95727539 24.80322266 C-14.94417971 23.19520293 -14.94336118 21.58703247 -14.95532227 19.97900391 C-15.04173021 6.68863854 -15.04173021 6.68863854 -12.50683594 2.57958984 C-8.39914359 -1.12344136 -5.41734705 -1.80578235 0 0 Z " fill="#FD6152" transform="translate(199,171)"/>
<path d="M0 0 C4.19833686 1.17194953 7.32889896 3.82441432 9.46870422 7.57342529 C10.4638845 9.86341882 11.34094046 12.17051594 12.1875 14.51953125 C12.51858261 15.39199997 12.84966522 16.26446869 13.19078064 17.16337585 C13.89916918 19.03071477 14.60075325 20.90064688 15.29608154 22.77288818 C16.74192697 26.63333868 18.25650628 30.46534128 19.76895142 34.30007935 C21.2999399 38.19705563 22.80144337 42.10506667 24.30053711 46.0144043 C25.07100798 48.01485862 25.84786571 50.01286307 26.63061523 52.00854492 C27.78206611 54.94665622 28.9126143 57.89207123 30.0390625 60.83984375 C30.3909816 61.72529373 30.7429007 62.61074371 31.10548401 63.52302551 C33.02955716 68.63492746 33.86027376 72.21011414 32.37890625 77.6640625 C30.31695926 80.69254714 28.84629704 82.3131647 25.22265625 83.1796875 C21.87264908 83.42535469 19.42746607 83.46077424 16.6875 81.37890625 C13.37890625 77.54244569 13.37890625 77.54244569 13.37890625 74.6640625 C3.47890625 74.6640625 -6.42109375 74.6640625 -16.62109375 74.6640625 C-17.28109375 76.3140625 -17.94109375 77.9640625 -18.62109375 79.6640625 C-21.18992166 82.52929363 -22.66195519 82.66860266 -26.55859375 83.1015625 C-29.4850816 82.959606 -30.83982261 82.55702497 -33.55859375 81.2265625 C-36.47614064 77.60173152 -36.81641145 74.18481386 -36.62109375 69.6640625 C-35.54904738 65.31196274 -33.93037229 61.22653309 -32.265625 57.0703125 C-31.8075798 55.88360962 -31.34953461 54.69690674 -30.87760925 53.47424316 C-29.66163119 50.33525975 -28.42909236 47.20387424 -27.18811035 44.07476807 C-25.9388726 40.91125181 -24.71422048 37.73825235 -23.48632812 34.56640625 C-10.1194973 0.18102857 -10.1194973 0.18102857 0 0 Z " fill="#FD6152" transform="translate(198.62109375,270.3359375)"/>
<path d="M0 0 C0.72960937 -0.0309375 1.45921875 -0.061875 2.2109375 -0.09375 C5.91559191 0.81742714 8.22487804 2.62731828 10.625 5.5 C12.77910019 9.69385741 14.3507418 14.07092938 15.953125 18.5 C16.43141092 19.78184545 16.91131752 21.06308723 17.39276123 22.34375 C18.65074511 25.70290041 19.88706125 29.06962002 21.11877441 32.43847656 C22.37372646 35.85956296 23.64845672 39.27325391 24.921875 42.6875 C27.1607396 48.69588094 29.38183513 54.71059732 31.58966064 60.73046875 C32.26631094 62.54050731 32.97927326 64.33749035 33.7321167 66.1171875 C35.28654706 70.265452 35.59259944 74.27827897 33.8203125 78.34765625 C32.12455676 80.82112065 30.38533911 82.30888402 27.46484375 83.04296875 C23.05486316 83.31537156 21.16291845 82.9258521 17.625 80.125 C15.625 77.5 15.625 77.5 14.625 75.5 C10.56854318 75.35136996 6.51314514 75.24266073 2.45458984 75.17041016 C1.07507719 75.14028696 -0.30424467 75.09937725 -1.68310547 75.04736328 C-3.66810092 74.97437498 -5.65450932 74.94370602 -7.640625 74.9140625 C-9.43161621 74.86693115 -9.43161621 74.86693115 -11.25878906 74.81884766 C-14.66189397 75.21289158 -14.66189397 75.21289158 -16.67089844 78.47412109 C-17.23325195 79.47266113 -17.79560547 80.47120117 -18.375 81.5 C-21.88080076 83.25290038 -25.55879058 83.17770616 -29.375 82.5 C-33.35303759 79.25262238 -33.35303759 79.25262238 -34.375 76.5 C-35.10973881 68.91506477 -32.70416936 63.03840462 -29.95703125 56.0390625 C-29.50277267 54.85331635 -29.0485141 53.66757019 -28.58049011 52.44589233 C-27.61899183 49.94369457 -26.6528128 47.44403415 -25.67749023 44.94726562 C-24.43899046 41.77632107 -23.21650142 38.59952287 -21.99983692 35.42014503 C-20.82507031 32.35323297 -19.64104677 29.28991351 -18.45703125 26.2265625 C-18.02348831 25.10021393 -17.58994537 23.97386536 -17.14326477 22.81338501 C-8.27065847 0.11607942 -8.27065847 0.11607942 0 0 Z " fill="#FD6152" transform="translate(314.375,270.5)"/>
<path d="M0 0 C1.40324524 -0.00717545 1.40324524 -0.00717545 2.83483887 -0.01449585 C4.80836676 -0.0178911 6.78195118 -0.00871489 8.75537109 0.01220703 C11.77178656 0.03897851 14.78448117 0.01244714 17.80078125 -0.01953125 C19.72136236 -0.01622708 21.64194116 -0.00982071 23.5625 0 C24.46158081 -0.01012115 25.36066162 -0.02024231 26.2869873 -0.03067017 C30.84352622 0.05438044 32.67881106 0.17359064 36.32617188 3.14306641 C36.97134766 3.97499512 37.61652344 4.80692383 38.28125 5.6640625 C38.77625 6.1590625 38.77625 6.1590625 39.28125 6.6640625 C39.36899179 9.75382709 39.06166027 12.67336275 38.28125 15.6640625 C35.48710817 18.52984899 32.96548566 20.59503645 28.8984375 20.76171875 C27.99351562 20.75011719 27.08859375 20.73851562 26.15625 20.7265625 C25.24617188 20.71753906 24.33609375 20.70851563 23.3984375 20.69921875 C22.35042969 20.68181641 22.35042969 20.68181641 21.28125 20.6640625 C21.29790459 21.71855843 21.29790459 21.71855843 21.31489563 22.7943573 C21.41521175 29.42965743 21.49127204 36.06474501 21.54031086 42.70063305 C21.5663706 46.11203124 21.6016989 49.52280124 21.65844727 52.93383789 C21.72332403 56.85815834 21.7474607 60.78222724 21.76953125 64.70703125 C21.79533768 65.92803024 21.8211441 67.14902924 21.84773254 68.4070282 C21.85085683 77.84474144 21.85085683 77.84474144 18.89331055 80.93237305 C15.44122351 83.22096575 13.46686442 83.37896194 9.4375 83.1640625 C5.98753222 82.36406997 4.37197004 80.40813255 2.28125 77.6640625 C0.99558271 75.09272791 1.16115222 73.2668915 1.16772461 70.38818359 C1.16780014 69.2871933 1.16787567 68.186203 1.16795349 67.05184937 C1.17311478 65.85911407 1.17827606 64.66637878 1.18359375 63.4375 C1.1850087 62.21954742 1.18642365 61.00159485 1.18788147 59.74673462 C1.19349361 55.8441526 1.20604821 51.94162727 1.21875 48.0390625 C1.22376343 45.39843833 1.22832661 42.75781326 1.23242188 40.1171875 C1.24346699 33.63279305 1.26021698 27.14843182 1.28125 20.6640625 C0.67144287 20.68436523 0.06163574 20.70466797 -0.56665039 20.72558594 C-1.37094482 20.74137695 -2.17523926 20.75716797 -3.00390625 20.7734375 C-4.19705444 20.8038916 -4.19705444 20.8038916 -5.41430664 20.83496094 C-9.02374039 20.56728389 -11.05258996 19.00508108 -13.71875 16.6640625 C-15.82732453 14.00542505 -15.71898614 12.67705043 -15.65625 9.2265625 C-13.36931181 0.53619738 -7.87646217 -0.08866711 0 0 Z " fill="#FD6353" transform="translate(243.71875,270.3359375)"/>
<path d="M0 0 C4.8542902 2.74303384 8.3121266 7.18315126 10.37109375 12.33984375 C11.23688937 19.95079127 11.16801348 27.09200385 6.37109375 33.33984375 C2.24740739 37.85736532 -2.1380299 39.99604532 -8.20703125 40.59375 C-14.36291672 40.85445007 -18.86498203 40.41299896 -23.62890625 36.33984375 C-29.00901269 31.08427681 -31.88513504 26.26863682 -32.12890625 18.58984375 C-32.00111078 12.09623635 -30.13944716 7.98332692 -25.62890625 3.33984375 C-17.33316054 -3.17489441 -9.76806088 -4.17781599 0 0 Z " fill="#FEFDFD" transform="translate(269.62890625,192.66015625)"/>
<path d="M0 0 C-1.48143977 3.43300299 -3.41861904 5.67171483 -6.05078125 8.30957031 C-6.88504639 9.15013977 -7.71931152 9.99070923 -8.57885742 10.85675049 C-9.48095947 11.75480408 -10.38306152 12.65285767 -11.3125 13.578125 C-12.69949097 14.96798615 -12.69949097 14.96798615 -14.11450195 16.38592529 C-16.06821699 18.3425837 -18.02549111 20.29559143 -19.98535156 22.24609375 C-22.50084205 24.75015854 -25.00720549 27.26313724 -27.51100159 29.7788887 C-29.8983264 32.17515944 -32.29322188 34.5638015 -34.6875 36.953125 C-36.04065308 38.31235077 -36.04065308 38.31235077 -37.42114258 39.69903564 C-38.25540771 40.52699646 -39.08967285 41.35495728 -39.94921875 42.20800781 C-40.68487061 42.94206848 -41.42052246 43.67612915 -42.1784668 44.43243408 C-44 46 -44 46 -46 46 C-49.99155913 37.85056678 -50.23972081 29.00851351 -48.4140625 20.16015625 C-45.37495154 11.33558176 -38.89894393 4.14705042 -30.625 -0.0625 C-20.89233809 -4.40357618 -9.6606538 -4.7317488 0 0 Z " fill="#FD7FA1" transform="translate(426,119)"/>
<path d="M0 0 C5.12142727 5.12142727 4.35032643 11.56169886 4.38720703 18.47607422 C4.2633906 24.96600275 2.80643064 29.66697976 -1 35 C-1.68642578 35.98033203 -1.68642578 35.98033203 -2.38671875 36.98046875 C-6.87186022 42.74356833 -13.04627641 46.80254521 -20 49 C-22.81767656 49.28071452 -25.60798794 49.27949969 -28.4375 49.25 C-29.17548828 49.25773437 -29.91347656 49.26546875 -30.67382812 49.2734375 C-36.04398634 49.2543436 -41.01585773 48.98414227 -45 45 C-30.15 30.15 -15.3 15.3 0 0 Z " fill="#FD7EA1" transform="translate(440,134)"/>
<path d="M0 0 C13.33333333 0 13.33333333 0 17.6953125 4.19921875 C21.01926323 8.78706691 21.35770411 13.28661985 21.3125 18.8125 C21.30686035 19.52446533 21.3012207 20.23643066 21.29541016 20.9699707 C21.13050176 28.09776866 20.12010044 32.39064561 15.5625 38 C12 40 12 40 0 40 C0 26.8 0 13.6 0 0 Z " fill="#FEFDFD" transform="translate(113,293)"/>
<path d="M0 0 C0.66 0 1.32 0 2 0 C3.00399524 2.62353518 4.00334445 5.24867795 5 7.875 C5.28617188 8.62136719 5.57234375 9.36773437 5.8671875 10.13671875 C8 15.7734375 8 15.7734375 8 18 C3.38 18 -1.24 18 -6 18 C-4.2177429 11.88940424 -2.30678315 5.9317281 0 0 Z " fill="#FEF6F5" transform="translate(196,307)"/>
<path d="M0 0 C3.14878942 1.57439471 3.54022492 4.71527725 4.625 7.875 C4.85445313 8.51308594 5.08390625 9.15117187 5.3203125 9.80859375 C6.32486598 12.67276705 7 14.94250743 7 18 C2.71 18 -1.58 18 -6 18 C-5.19950264 13.19701584 -4.32420375 9.97893173 -2.4375 5.625 C-1.98246094 4.56539063 -1.52742188 3.50578125 -1.05859375 2.4140625 C-0.70925781 1.61742187 -0.35992187 0.82078125 0 0 Z " fill="#FEF7F6" transform="translate(314,307)"/>
</svg>
